<?xml version="1.0" encoding="UTF-8" standalone="no"?>
<!DOCTYPE svg PUBLIC "-//W3C//DTD SVG 1.1//EN"
 "http://www.w3.org/Graphics/SVG/1.1/DTD/svg11.dtd">
<!-- Generated by graphviz version 2.43.0 (0)
 -->
<!-- Title: include/suite_runner.h Pages: 1 -->
<svg width="264pt" height="196pt"
 viewBox="0.00 0.00 264.00 196.00" xmlns="http://www.w3.org/2000/svg" xmlns:xlink="http://www.w3.org/1999/xlink">
<g id="graph0" class="graph" transform="scale(1 1) rotate(0) translate(4 192)">
<title>include/suite_runner.h</title>
<!-- Node1 -->
<g id="node1" class="node">
<title>Node1</title>
<g id="a_node1"><a xlink:title="This file provides functionality to run test suites and generate output that can be evaluated.">
<polygon fill="#bfbfbf" stroke="black" points="1.5,-168.5 1.5,-187.5 112.5,-187.5 112.5,-168.5 1.5,-168.5"/>
<text text-anchor="middle" x="57" y="-175.5" font-family="Helvetica,sans-Serif" font-size="10.00">include/suite_runner.h</text>
</a>
</g>
</g>
<!-- Node2 -->
<g id="node2" class="node">
<title>Node2</title>
<g id="a_node2"><a xlink:title=" ">
<polygon fill="none" stroke="#bfbfbf" points="70.5,-0.5 70.5,-19.5 119.5,-19.5 119.5,-0.5 70.5,-0.5"/>
<text text-anchor="middle" x="95" y="-7.5" font-family="Helvetica,sans-Serif" font-size="10.00">stdint.h</text>
</a>
</g>
</g>
<!-- Node1&#45;&gt;Node2 -->
<g id="edge1" class="edge">
<title>Node1&#45;&gt;Node2</title>
<path fill="none" stroke="midnightblue" d="M54.46,-168.39C48.92,-148 37.43,-95.5 53,-56 57.51,-44.55 66.47,-34.29 74.95,-26.47"/>
<polygon fill="midnightblue" stroke="midnightblue" points="77.47,-28.93 82.79,-19.76 72.91,-23.61 77.47,-28.93"/>
</g>
<!-- Node3 -->
<g id="node3" class="node">
<title>Node3</title>
<g id="a_node3"><a xlink:href="pra_8h_source.html" target="_top" xlink:title=" ">
<polygon fill="none" stroke="black" points="92,-112.5 92,-131.5 130,-131.5 130,-112.5 92,-112.5"/>
<text text-anchor="middle" x="111" y="-119.5" font-family="Helvetica,sans-Serif" font-size="10.00">pra.h</text>
</a>
</g>
</g>
<!-- Node1&#45;&gt;Node3 -->
<g id="edge2" class="edge">
<title>Node1&#45;&gt;Node3</title>
<path fill="none" stroke="midnightblue" d="M65.92,-168.08C73.78,-160.22 85.43,-148.57 94.92,-139.08"/>
<polygon fill="midnightblue" stroke="midnightblue" points="97.65,-141.3 102.25,-131.75 92.7,-136.35 97.65,-141.3"/>
</g>
<!-- Node4 -->
<g id="node4" class="node">
<title>Node4</title>
<g id="a_node4"><a xlink:title=" ">
<polygon fill="none" stroke="#bfbfbf" points="0,-0.5 0,-19.5 52,-19.5 52,-0.5 0,-0.5"/>
<text text-anchor="middle" x="26" y="-7.5" font-family="Helvetica,sans-Serif" font-size="10.00">stddef.h</text>
</a>
</g>
</g>
<!-- Node3&#45;&gt;Node4 -->
<g id="edge3" class="edge">
<title>Node3&#45;&gt;Node4</title>
<path fill="none" stroke="midnightblue" d="M95.88,-112.38C83,-104.37 64.76,-91.39 53,-76 42.35,-62.05 35.15,-43.3 30.88,-29.52"/>
<polygon fill="midnightblue" stroke="midnightblue" points="34.2,-28.37 28.08,-19.72 27.47,-30.3 34.2,-28.37"/>
</g>
<!-- Node5 -->
<g id="node5" class="node">
<title>Node5</title>
<g id="a_node5"><a xlink:href="lib_8h_source.html" target="_top" xlink:title=" ">
<polygon fill="none" stroke="black" points="62.5,-56.5 62.5,-75.5 97.5,-75.5 97.5,-56.5 62.5,-56.5"/>
<text text-anchor="middle" x="80" y="-63.5" font-family="Helvetica,sans-Serif" font-size="10.00">lib.h</text>
</a>
</g>
</g>
<!-- Node3&#45;&gt;Node5 -->
<g id="edge4" class="edge">
<title>Node3&#45;&gt;Node5</title>
<path fill="none" stroke="midnightblue" d="M105.88,-112.08C101.59,-104.61 95.34,-93.72 90.06,-84.52"/>
<polygon fill="midnightblue" stroke="midnightblue" points="93.04,-82.68 85.02,-75.75 86.97,-86.17 93.04,-82.68"/>
</g>
<!-- Node6 -->
<g id="node6" class="node">
<title>Node6</title>
<g id="a_node6"><a xlink:href="idt_8h_source.html" target="_top" xlink:title=" ">
<polygon fill="none" stroke="black" points="186.5,-56.5 186.5,-75.5 221.5,-75.5 221.5,-56.5 186.5,-56.5"/>
<text text-anchor="middle" x="204" y="-63.5" font-family="Helvetica,sans-Serif" font-size="10.00">idt.h</text>
</a>
</g>
</g>
<!-- Node3&#45;&gt;Node6 -->
<g id="edge7" class="edge">
<title>Node3&#45;&gt;Node6</title>
<path fill="none" stroke="midnightblue" d="M125.94,-112.32C140.59,-103.82 163.13,-90.73 180.24,-80.8"/>
<polygon fill="midnightblue" stroke="midnightblue" points="182.2,-83.7 189.1,-75.65 178.69,-77.65 182.2,-83.7"/>
</g>
<!-- Node7 -->
<g id="node7" class="node">
<title>Node7</title>
<g id="a_node7"><a xlink:href="attrs_8h_source.html" target="_top" xlink:title=" ">
<polygon fill="none" stroke="black" points="212,-0.5 212,-19.5 256,-19.5 256,-0.5 212,-0.5"/>
<text text-anchor="middle" x="234" y="-7.5" font-family="Helvetica,sans-Serif" font-size="10.00">attrs.h</text>
</a>
</g>
</g>
<!-- Node3&#45;&gt;Node7 -->
<g id="edge11" class="edge">
<title>Node3&#45;&gt;Node7</title>
<path fill="none" stroke="midnightblue" d="M130.22,-120.02C157.68,-117.47 207.43,-108.38 231,-76 240.65,-62.74 240.32,-43.61 238.22,-29.54"/>
<polygon fill="midnightblue" stroke="midnightblue" points="241.63,-28.71 236.32,-19.54 234.75,-30.02 241.63,-28.71"/>
</g>
<!-- Node9 -->
<g id="node9" class="node">
<title>Node9</title>
<g id="a_node9"><a xlink:href="paging_8h_source.html" target="_top" xlink:title=" ">
<polygon fill="none" stroke="black" points="115.5,-56.5 115.5,-75.5 168.5,-75.5 168.5,-56.5 115.5,-56.5"/>
<text text-anchor="middle" x="142" y="-63.5" font-family="Helvetica,sans-Serif" font-size="10.00">paging.h</text>
</a>
</g>
</g>
<!-- Node3&#45;&gt;Node9 -->
<g id="edge12" class="edge">
<title>Node3&#45;&gt;Node9</title>
<path fill="none" stroke="midnightblue" d="M116.12,-112.08C120.41,-104.61 126.66,-93.72 131.94,-84.52"/>
<polygon fill="midnightblue" stroke="midnightblue" points="135.03,-86.17 136.98,-75.75 128.96,-82.68 135.03,-86.17"/>
</g>
<!-- Node5&#45;&gt;Node2 -->
<g id="edge5" class="edge">
<title>Node5&#45;&gt;Node2</title>
<path fill="none" stroke="midnightblue" d="M82.48,-56.08C84.49,-48.85 87.39,-38.41 89.89,-29.4"/>
<polygon fill="midnightblue" stroke="midnightblue" points="93.26,-30.32 92.57,-19.75 86.52,-28.45 93.26,-30.32"/>
</g>
<!-- Node5&#45;&gt;Node4 -->
<g id="edge6" class="edge">
<title>Node5&#45;&gt;Node4</title>
<path fill="none" stroke="midnightblue" d="M71.08,-56.08C63.22,-48.22 51.57,-36.57 42.08,-27.08"/>
<polygon fill="midnightblue" stroke="midnightblue" points="44.3,-24.35 34.75,-19.75 39.35,-29.3 44.3,-24.35"/>
</g>
<!-- Node6&#45;&gt;Node2 -->
<g id="edge9" class="edge">
<title>Node6&#45;&gt;Node2</title>
<path fill="none" stroke="midnightblue" d="M186.49,-56.32C168.93,-47.62 141.67,-34.12 121.47,-24.11"/>
<polygon fill="midnightblue" stroke="midnightblue" points="122.98,-20.96 112.47,-19.65 119.88,-27.23 122.98,-20.96"/>
</g>
<!-- Node6&#45;&gt;Node7 -->
<g id="edge8" class="edge">
<title>Node6&#45;&gt;Node7</title>
<path fill="none" stroke="midnightblue" d="M208.95,-56.08C213.1,-48.61 219.15,-37.72 224.27,-28.52"/>
<polygon fill="midnightblue" stroke="midnightblue" points="227.34,-30.19 229.14,-19.75 221.22,-26.79 227.34,-30.19"/>
</g>
<!-- Node8 -->
<g id="node8" class="node">
<title>Node8</title>
<g id="a_node8"><a xlink:title=" ">
<polygon fill="none" stroke="#bfbfbf" points="138,-0.5 138,-19.5 194,-19.5 194,-0.5 138,-0.5"/>
<text text-anchor="middle" x="166" y="-7.5" font-family="Helvetica,sans-Serif" font-size="10.00">stdbool.h</text>
</a>
</g>
</g>
<!-- Node6&#45;&gt;Node8 -->
<g id="edge10" class="edge">
<title>Node6&#45;&gt;Node8</title>
<path fill="none" stroke="midnightblue" d="M197.73,-56.08C192.36,-48.46 184.48,-37.26 177.92,-27.94"/>
<polygon fill="midnightblue" stroke="midnightblue" points="180.78,-25.91 172.16,-19.75 175.05,-29.94 180.78,-25.91"/>
</g>
<!-- Node9&#45;&gt;Node2 -->
<g id="edge13" class="edge">
<title>Node9&#45;&gt;Node2</title>
<path fill="none" stroke="midnightblue" d="M134.24,-56.08C127.46,-48.3 117.46,-36.8 109.24,-27.37"/>
<polygon fill="midnightblue" stroke="midnightblue" points="111.82,-25 102.62,-19.75 106.54,-29.59 111.82,-25"/>
</g>
<!-- Node9&#45;&gt;Node4 -->
<g id="edge14" class="edge">
<title>Node9&#45;&gt;Node4</title>
<path fill="none" stroke="midnightblue" d="M123.62,-56.44C104.78,-47.68 75.27,-33.94 53.62,-23.86"/>
<polygon fill="midnightblue" stroke="midnightblue" points="54.84,-20.56 44.29,-19.52 51.88,-26.91 54.84,-20.56"/>
</g>
<!-- Node9&#45;&gt;Node7 -->
<g id="edge16" class="edge">
<title>Node9&#45;&gt;Node7</title>
<path fill="none" stroke="midnightblue" d="M156.78,-56.32C171.27,-47.82 193.57,-34.73 210.49,-24.8"/>
<polygon fill="midnightblue" stroke="midnightblue" points="212.4,-27.74 219.26,-19.65 208.86,-21.7 212.4,-27.74"/>
</g>
<!-- Node9&#45;&gt;Node8 -->
<g id="edge15" class="edge">
<title>Node9&#45;&gt;Node8</title>
<path fill="none" stroke="midnightblue" d="M145.96,-56.08C149.21,-48.77 153.92,-38.18 157.95,-29.1"/>
<polygon fill="midnightblue" stroke="midnightblue" points="161.25,-30.31 162.11,-19.75 154.85,-27.47 161.25,-30.31"/>
</g>
</g>
</svg>
