<?xml version="1.0" encoding="UTF-8" standalone="no"?>
<!DOCTYPE svg PUBLIC "-//W3C//DTD SVG 1.1//EN"
 "http://www.w3.org/Graphics/SVG/1.1/DTD/svg11.dtd">
<!-- Generated by graphviz version 2.43.0 (0)
 -->
<!-- Title: include/suite_runner.h Pages: 1 -->
<svg width="296pt" height="196pt"
 viewBox="0.00 0.00 295.50 196.00" xmlns="http://www.w3.org/2000/svg" xmlns:xlink="http://www.w3.org/1999/xlink">
<g id="graph0" class="graph" transform="scale(1 1) rotate(0) translate(4 192)">
<title>include/suite_runner.h</title>
<!-- Node1 -->
<g id="node1" class="node">
<title>Node1</title>
<g id="a_node1"><a xlink:title="This file provides functionality to run test suites and generate output that can be evaluated.">
<polygon fill="#bfbfbf" stroke="black" points="0,-168.5 0,-187.5 111,-187.5 111,-168.5 0,-168.5"/>
<text text-anchor="middle" x="55.5" y="-175.5" font-family="Helvetica,sans-Serif" font-size="10.00">include/suite_runner.h</text>
</a>
</g>
</g>
<!-- Node2 -->
<g id="node2" class="node">
<title>Node2</title>
<g id="a_node2"><a xlink:title=" ">
<polygon fill="none" stroke="#bfbfbf" points="30,-0.5 30,-19.5 79,-19.5 79,-0.5 30,-0.5"/>
<text text-anchor="middle" x="54.5" y="-7.5" font-family="Helvetica,sans-Serif" font-size="10.00">stdint.h</text>
</a>
</g>
</g>
<!-- Node1&#45;&gt;Node2 -->
<g id="edge1" class="edge">
<title>Node1&#45;&gt;Node2</title>
<path fill="none" stroke="midnightblue" d="M50.24,-168.42C38.72,-148.52 13.22,-97.73 25.5,-56 28.51,-45.76 34.65,-35.66 40.51,-27.63"/>
<polygon fill="midnightblue" stroke="midnightblue" points="43.43,-29.58 46.83,-19.54 37.91,-25.27 43.43,-29.58"/>
</g>
<!-- Node3 -->
<g id="node3" class="node">
<title>Node3</title>
<g id="a_node3"><a xlink:href="pra_8h_source.html" target="_top" xlink:title=" ">
<polygon fill="none" stroke="black" points="109.5,-112.5 109.5,-131.5 147.5,-131.5 147.5,-112.5 109.5,-112.5"/>
<text text-anchor="middle" x="128.5" y="-119.5" font-family="Helvetica,sans-Serif" font-size="10.00">pra.h</text>
</a>
</g>
</g>
<!-- Node1&#45;&gt;Node3 -->
<g id="edge2" class="edge">
<title>Node1&#45;&gt;Node3</title>
<path fill="none" stroke="midnightblue" d="M67.23,-168.32C78.34,-160.11 95.24,-147.6 108.48,-137.81"/>
<polygon fill="midnightblue" stroke="midnightblue" points="110.6,-140.59 116.56,-131.83 106.44,-134.97 110.6,-140.59"/>
</g>
<!-- Node4 -->
<g id="node4" class="node">
<title>Node4</title>
<g id="a_node4"><a xlink:title=" ">
<polygon fill="none" stroke="#bfbfbf" points="235.5,-0.5 235.5,-19.5 287.5,-19.5 287.5,-0.5 235.5,-0.5"/>
<text text-anchor="middle" x="261.5" y="-7.5" font-family="Helvetica,sans-Serif" font-size="10.00">stddef.h</text>
</a>
</g>
</g>
<!-- Node3&#45;&gt;Node4 -->
<g id="edge3" class="edge">
<title>Node3&#45;&gt;Node4</title>
<path fill="none" stroke="midnightblue" d="M147.55,-118.67C172.84,-114.56 217.26,-103.66 242.5,-76 254,-63.39 258.57,-44.18 260.37,-29.91"/>
<polygon fill="midnightblue" stroke="midnightblue" points="263.87,-30.02 261.3,-19.74 256.9,-29.38 263.87,-30.02"/>
</g>
<!-- Node5 -->
<g id="node5" class="node">
<title>Node5</title>
<g id="a_node5"><a xlink:href="lib_8h_source.html" target="_top" xlink:title=" ">
<polygon fill="none" stroke="black" points="88,-56.5 88,-75.5 123,-75.5 123,-56.5 88,-56.5"/>
<text text-anchor="middle" x="105.5" y="-63.5" font-family="Helvetica,sans-Serif" font-size="10.00">lib.h</text>
</a>
</g>
</g>
<!-- Node3&#45;&gt;Node5 -->
<g id="edge4" class="edge">
<title>Node3&#45;&gt;Node5</title>
<path fill="none" stroke="midnightblue" d="M124.7,-112.08C121.59,-104.77 117.08,-94.18 113.21,-85.1"/>
<polygon fill="midnightblue" stroke="midnightblue" points="116.37,-83.58 109.23,-75.75 109.93,-86.32 116.37,-83.58"/>
</g>
<!-- Node6 -->
<g id="node6" class="node">
<title>Node6</title>
<g id="a_node6"><a xlink:href="idt_8h_source.html" target="_top" xlink:title=" ">
<polygon fill="none" stroke="black" points="35,-56.5 35,-75.5 70,-75.5 70,-56.5 35,-56.5"/>
<text text-anchor="middle" x="52.5" y="-63.5" font-family="Helvetica,sans-Serif" font-size="10.00">idt.h</text>
</a>
</g>
</g>
<!-- Node3&#45;&gt;Node6 -->
<g id="edge7" class="edge">
<title>Node3&#45;&gt;Node6</title>
<path fill="none" stroke="midnightblue" d="M116.29,-112.32C104.72,-104.11 87.12,-91.6 73.34,-81.81"/>
<polygon fill="midnightblue" stroke="midnightblue" points="75.11,-78.77 64.93,-75.83 71.06,-84.48 75.11,-78.77"/>
</g>
<!-- Node7 -->
<g id="node7" class="node">
<title>Node7</title>
<g id="a_node7"><a xlink:href="attrs_8h_source.html" target="_top" xlink:title=" ">
<polygon fill="none" stroke="black" points="99.5,-0.5 99.5,-19.5 143.5,-19.5 143.5,-0.5 99.5,-0.5"/>
<text text-anchor="middle" x="121.5" y="-7.5" font-family="Helvetica,sans-Serif" font-size="10.00">attrs.h</text>
</a>
</g>
</g>
<!-- Node3&#45;&gt;Node7 -->
<g id="edge10" class="edge">
<title>Node3&#45;&gt;Node7</title>
<path fill="none" stroke="midnightblue" d="M130.06,-112.14C132.03,-99.6 134.91,-75.98 132.5,-56 131.43,-47.11 129.21,-37.43 127.04,-29.34"/>
<polygon fill="midnightblue" stroke="midnightblue" points="130.34,-28.17 124.23,-19.51 123.61,-30.09 130.34,-28.17"/>
</g>
<!-- Node8 -->
<g id="node8" class="node">
<title>Node8</title>
<g id="a_node8"><a xlink:href="paging_8h_source.html" target="_top" xlink:title=" ">
<polygon fill="none" stroke="black" points="180,-56.5 180,-75.5 233,-75.5 233,-56.5 180,-56.5"/>
<text text-anchor="middle" x="206.5" y="-63.5" font-family="Helvetica,sans-Serif" font-size="10.00">paging.h</text>
</a>
</g>
</g>
<!-- Node3&#45;&gt;Node8 -->
<g id="edge11" class="edge">
<title>Node3&#45;&gt;Node8</title>
<path fill="none" stroke="midnightblue" d="M141.03,-112.32C153.09,-103.98 171.53,-91.21 185.77,-81.35"/>
<polygon fill="midnightblue" stroke="midnightblue" points="187.77,-84.22 194,-75.65 183.78,-78.47 187.77,-84.22"/>
</g>
<!-- Node5&#45;&gt;Node2 -->
<g id="edge5" class="edge">
<title>Node5&#45;&gt;Node2</title>
<path fill="none" stroke="midnightblue" d="M97.08,-56.08C89.65,-48.22 78.65,-36.57 69.69,-27.08"/>
<polygon fill="midnightblue" stroke="midnightblue" points="72.18,-24.62 62.76,-19.75 67.09,-29.42 72.18,-24.62"/>
</g>
<!-- Node5&#45;&gt;Node4 -->
<g id="edge6" class="edge">
<title>Node5&#45;&gt;Node4</title>
<path fill="none" stroke="midnightblue" d="M123.09,-58.91C148.29,-50.19 195.18,-33.96 227.34,-22.83"/>
<polygon fill="midnightblue" stroke="midnightblue" points="228.5,-26.13 236.8,-19.55 226.21,-19.51 228.5,-26.13"/>
</g>
<!-- Node6&#45;&gt;Node2 -->
<g id="edge9" class="edge">
<title>Node6&#45;&gt;Node2</title>
<path fill="none" stroke="midnightblue" d="M52.83,-56.08C53.09,-49.01 53.47,-38.86 53.8,-29.99"/>
<polygon fill="midnightblue" stroke="midnightblue" points="57.3,-29.87 54.18,-19.75 50.31,-29.61 57.3,-29.87"/>
</g>
<!-- Node6&#45;&gt;Node7 -->
<g id="edge8" class="edge">
<title>Node6&#45;&gt;Node7</title>
<path fill="none" stroke="midnightblue" d="M63.59,-56.32C73.99,-48.18 89.76,-35.84 102.22,-26.09"/>
<polygon fill="midnightblue" stroke="midnightblue" points="104.49,-28.75 110.21,-19.83 100.18,-23.24 104.49,-28.75"/>
</g>
<!-- Node8&#45;&gt;Node2 -->
<g id="edge12" class="edge">
<title>Node8&#45;&gt;Node2</title>
<path fill="none" stroke="midnightblue" d="M182.42,-56.44C156.96,-47.4 116.61,-33.06 88.04,-22.92"/>
<polygon fill="midnightblue" stroke="midnightblue" points="89.07,-19.57 78.47,-19.52 86.72,-26.16 89.07,-19.57"/>
</g>
<!-- Node8&#45;&gt;Node4 -->
<g id="edge13" class="edge">
<title>Node8&#45;&gt;Node4</title>
<path fill="none" stroke="midnightblue" d="M215.58,-56.08C223.67,-48.14 235.7,-36.34 245.41,-26.8"/>
<polygon fill="midnightblue" stroke="midnightblue" points="247.9,-29.25 252.59,-19.75 243,-24.26 247.9,-29.25"/>
</g>
<!-- Node8&#45;&gt;Node7 -->
<g id="edge15" class="edge">
<title>Node8&#45;&gt;Node7</title>
<path fill="none" stroke="midnightblue" d="M192.84,-56.32C179.58,-47.9 159.23,-34.97 143.65,-25.07"/>
<polygon fill="midnightblue" stroke="midnightblue" points="145.44,-22.06 135.12,-19.65 141.69,-27.97 145.44,-22.06"/>
</g>
<!-- Node9 -->
<g id="node9" class="node">
<title>Node9</title>
<g id="a_node9"><a xlink:title=" ">
<polygon fill="none" stroke="#bfbfbf" points="161.5,-0.5 161.5,-19.5 217.5,-19.5 217.5,-0.5 161.5,-0.5"/>
<text text-anchor="middle" x="189.5" y="-7.5" font-family="Helvetica,sans-Serif" font-size="10.00">stdbool.h</text>
</a>
</g>
</g>
<!-- Node8&#45;&gt;Node9 -->
<g id="edge14" class="edge">
<title>Node8&#45;&gt;Node9</title>
<path fill="none" stroke="midnightblue" d="M203.69,-56.08C201.42,-48.85 198.13,-38.41 195.29,-29.4"/>
<polygon fill="midnightblue" stroke="midnightblue" points="198.6,-28.24 192.25,-19.75 191.92,-30.34 198.6,-28.24"/>
</g>
</g>
</svg>
